<svg width="1604" height="1605" viewBox="0 0 1604 1605" fill="none" xmlns="http://www.w3.org/2000/svg">
<path fill-rule="evenodd" clip-rule="evenodd" d="M774.808 4.41997C742.619 13.528 722.266 29.758 635.092 115.833L549.851 200L435.092 200.058C311.051 200.12 290.511 202.196 259.763 217.778C239.954 227.816 217.092 251.844 208.179 271.992C194.182 303.636 192.119 325.78 192.058 445.03L192 558.393L121.78 628.363C13.726 736.032 0.333008 755.694 0.333008 806.667C0.333008 831.436 1.62902 837.726 10.634 856.667C26.156 889.315 54.192 921.881 126.459 991.205L192 1054.08L192.058 1164.54C192.119 1280.82 194.243 1303.17 208.241 1334.81C223.176 1368.58 259.804 1395.33 302.067 1403.35C311.697 1405.17 370.25 1406.67 432.184 1406.67H544.79L610.895 1475.31C684.303 1551.54 716.457 1579.41 748.667 1594.71C767.6 1603.7 773.908 1605 798.667 1605C849.955 1605 868.952 1591.95 980.305 1480.22L1053.61 1406.67H1169.02C1232.49 1406.67 1292.3 1405.17 1301.93 1403.35C1344.2 1395.33 1380.82 1368.58 1395.76 1334.81C1409.82 1303.02 1411.88 1281 1411.94 1161.64L1412 1048.27L1482.22 978.304C1590.27 870.635 1603.67 850.973 1603.67 800C1603.67 775.926 1602.26 768.66 1594.31 751.667C1578.98 718.88 1552.15 687.517 1480.2 618.242L1412 552.586L1411.94 442.126C1411.88 325.955 1409.75 303.486 1395.82 271.992C1386.91 251.844 1364.05 227.816 1344.24 217.778C1313.61 202.257 1292.77 200.12 1171.44 200.058L1059.21 200L993.105 131.353C919.685 55.11 889.26 28.73 856.974 13.321C831.238 1.03797 799.072 -2.44603 774.808 4.41997ZM855.516 36.836C872.638 45.805 892.565 63.498 953.667 123.984L1030.33 199.879L979.617 199.939C934.187 199.994 928.566 200.627 925.683 206.013C918.222 219.953 924.727 221.609 991.039 222.647L1053.67 223.628L1221.17 390.968L1388.67 558.309V1038.43L1346.78 1080.05C1301.8 1124.74 1297.61 1130.02 1300.7 1138.09C1305.31 1150.09 1317.36 1143.09 1352.06 1108.27L1387 1073.2L1388.67 1152.43C1391.32 1278.63 1387 1311.72 1363.65 1343.87C1347.79 1365.71 1320.08 1378.81 1280.33 1383.26C1263.83 1385.1 1210.61 1386.62 1162.07 1386.64L1073.8 1386.67L1104.57 1355.77C1135.1 1325.11 1141.6 1313.12 1130.09 1308.7C1122.12 1305.64 1116.66 1309.87 1077.06 1349.78L1040.45 1386.67H918.224L919.279 1395.83L920.333 1405L969.67 1406.67L1019.01 1408.33L941.337 1485.34C874.636 1551.47 860.494 1563.89 841.201 1573.28C820.548 1583.33 816.769 1584.09 794.352 1582.65C752.666 1579.97 739.11 1570.56 650.333 1482.68L573.667 1406.79L622.716 1406.73C666.027 1406.67 672.116 1405.98 674.766 1400.83C681.544 1387.65 677.336 1386.67 614.222 1386.65L553.667 1386.63L384.5 1217.4L215.333 1048.17V568.648L257.293 526.242C300.27 482.807 305.885 472.938 288.988 470.539C282.7 469.646 274.221 476.209 248.311 502.021L215.579 534.631L214.623 456.482C212.628 293.457 221.092 262.308 274.537 235.984L296.837 225L411.918 224.009L527 223.017L495.837 254.402C463.277 287.195 458.632 297.374 475.362 299.279C482.07 300.042 491.028 292.83 521.946 261.779L560.225 223.333H613.809C655.256 223.333 668.858 222.245 673.863 218.529C679.038 214.686 679.595 212.517 676.647 207.695C673.483 202.522 666.73 201.43 629.036 200L585.112 198.333L661.056 123.032C755.416 29.471 766.451 22.19 810.516 24.401C829.327 25.346 838.33 27.833 855.516 36.836ZM1330.39 236.667C1383 263.719 1392.05 296.961 1388.67 450.853L1387 526.707L1235.33 374.876L1083.67 223.046L1195.68 224.023L1307.69 225L1330.39 236.667ZM305.333 549.74C305.333 553.099 377.687 867.939 380.687 877.631C382.296 882.831 386.013 883.471 409.716 882.631L436.9 881.667L467.608 766.667C484.498 703.417 499.218 648.115 500.32 643.773C501.423 639.432 503.062 636.617 503.963 637.519C505.291 638.846 568.667 878.559 568.667 882.253C568.667 882.847 581.123 883.333 596.347 883.333H624.028L662.578 715.833L701.128 548.333L674.483 547.359C659.829 546.822 647.104 547.118 646.207 548.016C645.309 548.913 633.026 606.288 618.911 675.514C604.796 744.741 592.435 799.945 591.443 798.19C590.451 796.436 575.737 739.125 558.746 670.833L527.853 546.667H478.924L475.694 559.167C473.918 566.042 460.303 619.667 445.439 678.333C412.733 807.416 415.177 799 412.134 793.043C410.811 790.453 398.614 733.961 385.031 667.506L360.333 546.679L332.833 546.673C317.708 546.669 305.333 548.05 305.333 549.74ZM748.667 715.152V884.112L814.5 882.416C894.354 880.36 910.74 876.189 944.627 849.297C964.102 833.843 980.207 810.254 989.356 783.782C996.042 764.438 996.98 755.401 996.842 711.667C996.702 667.304 995.801 659.412 988.851 641.667C973.455 602.356 949.469 576.352 912.411 558.794L890.333 548.333L819.5 547.263L748.667 546.192V715.152ZM1062 715.086V884.027L1141.17 882.546C1236.05 880.77 1247.44 878.129 1273.78 851.781C1293.33 832.233 1299.26 816.282 1299.26 783.242C1299.26 767.358 1297.3 757.05 1292.49 747.628C1284.61 732.187 1265.47 714.332 1253.61 711.353C1249.06 710.212 1245.39 708.315 1245.45 707.139C1245.52 705.962 1252.16 700.83 1260.21 695.734C1300.41 670.272 1303.12 606.272 1265.43 572.387C1241.01 550.433 1234.37 549.085 1142.83 547.524L1062 546.146V715.086ZM1568.78 750C1579.36 769.834 1580.33 774.063 1580.33 800C1580.33 842.521 1575.05 850.386 1486.33 940L1412.08 1015L1412.1 798.333L1412.13 581.667L1484.68 655C1541.58 712.512 1559.72 733.008 1568.78 750ZM878.471 595.251C901.785 602.174 924.451 624.657 933.667 650C939.099 664.938 940.333 676.667 940.333 713.333C940.333 764.835 935.204 784.495 915.878 807.074C897.354 828.715 882.534 834.46 841.167 836.038L805.333 837.404V590H833.062C848.592 590 868.568 592.31 878.471 595.251ZM1214.76 597.82C1243.63 613.314 1241.69 664.852 1211.67 680.166C1201.13 685.546 1192.01 686.667 1158.8 686.667H1118.67V589.331L1161.17 590.597C1193.81 591.569 1206.24 593.244 1214.76 597.82ZM191.937 809.167L191.874 1025L119.322 951.667C31.167 862.563 23.667 851.193 23.667 806.667C23.667 764.271 29.048 756.223 116.719 667.5C157.027 626.708 190.455 593.333 191.003 593.333C191.552 593.333 191.972 690.458 191.937 809.167ZM1217.61 736.478C1235.55 744.622 1243.07 758.736 1243.09 784.294C1243.11 805.113 1237.93 815.264 1220.73 828.127C1212.67 834.15 1205.79 835.134 1165.1 836.085L1118.67 837.171V730L1161.17 730.073C1195.69 730.133 1206.28 731.335 1217.61 736.478ZM518.667 1384.51C518.667 1388.74 316.655 1384.74 298.197 1380.14C275.957 1374.59 248.707 1357.12 238.193 1341.67C217.395 1311.09 213.098 1277.09 214.625 1155.14L215.584 1078.61L367.125 1230.12C450.473 1313.46 518.667 1382.93 518.667 1384.51Z" fill="url(#paint0_linear_1_3)"/>
<defs>
<linearGradient id="paint0_linear_1_3" x1="802" y1="0.945068" x2="802" y2="1605" gradientUnits="userSpaceOnUse">
<stop stop-color="#A437DB"/>
<stop offset="1" stop-color="#FF1010" stop-opacity="0"/>
</linearGradient>
</defs>
</svg>
