<svg xmlns="http://www.w3.org/2000/svg" version="1.1" xmlns:xlink="http://www.w3.org/1999/xlink" xmlns:svgjs="http://svgjs.dev/svgjs" width="2000" height="1500" viewBox="0 0 2000 1500"><rect width="2000" height="1500" fill="#000000"></rect><g transform="matrix(0.75,0,0,0.75,250,147.375)"><svg viewBox="0 0 448 360" data-background-color="#35185a" preserveAspectRatio="xMidYMid meet" height="1607" width="2000" xmlns="http://www.w3.org/2000/svg" xmlns:xlink="http://www.w3.org/1999/xlink"><g id="tight-bounds" transform="matrix(1,0,0,1,0,0)"><svg viewBox="0 0 448 360" height="360" width="448"><g><svg></svg></g><g><svg viewBox="0 0 448 360" height="360" width="448"><g><path d="M193.855 44.683c1.378 0 2.494 1.116 2.495 2.494 0 1.378-1.116 2.494-2.495 2.495h-23.846l-17.167 17.167c-0.973 0.973-2.551 0.973-3.53 0-0.973-0.973-0.973-2.551 0-3.529l13.644-13.645h-40.378c-11.518 0-19.151 2.688-23.815 8.113-4.739 5.519-6.66 14.056-6.66 25.63 0 0.069 0 0.137-0.006 0.206l0.212 36.692 14.692-14.692c0.973-0.973 2.551-0.973 3.53 0 0.973 0.973 0.973 2.551 0 3.53l-18.178 18.178c0.206 35.832 0.193 71.358-0.013 107.19 25.486 25.2 50.617 50.312 75.811 75.791h25.38c1.378 0 2.494 1.116 2.495 2.495 0 1.378-1.116 2.494-2.495 2.494h-20.448l25.942 26.241 0.006-0.006c8.188 8.188 15.577 12.859 22.824 13.413 7.146 0.543 14.442-2.956 22.586-11.093l28.555-28.555h-20.722c-1.378 0-2.494-1.116-2.495-2.494 0-1.378 1.116-2.494 2.495-2.495h25.711l16.625-16.625c0.973-0.973 2.551-0.973 3.529 0 0.973 0.973 0.973 2.551 0 3.53l-13.101 13.102h40.377c11.518 0 19.151-2.688 23.815-8.113 4.739-5.519 6.66-14.056 6.66-25.63h0.013l-0.212-36.898-16.014 16.014c-0.973 0.973-2.551 0.973-3.53 0-0.973-0.973-0.973-2.551 0-3.53l19.5-19.5c-0.206-35.832-0.193-71.358 0.013-107.19-25.486-25.2-50.617-50.312-75.811-75.791h-26.147c-1.378 0-2.494-1.116-2.495-2.495 0-1.378 1.116-2.494 2.495-2.494h21.215l-25.824-26.123c-0.044-0.037-0.081-0.075-0.124-0.112-8.188-8.188-15.577-12.859-22.824-13.413-7.146-0.543-14.442 2.956-22.586 11.093l-28.555 28.555h18.858zM122.578 44.683h45.367l32.078-32.078c9.248-9.248 17.81-13.195 26.484-12.534 8.568 0.649 16.956 5.824 25.985 14.854 0.05 0.05 0.094 0.094 0.137 0.143l29.278 29.615h43.508c13.071 0 21.919 3.268 27.594 9.871 5.6 6.517 7.864 16.101 7.864 28.867 0 0.081-0.006 0.156-0.012 0.23l-0.225 39.742 28.43 28.112 0.006-0.006c9.03 9.03 14.206 17.411 14.854 25.985 0.661 8.674-3.293 17.236-12.534 26.484l-30.768 30.768 0.237 41.843h0.012c0 12.765-2.27 22.35-7.864 28.867-5.675 6.604-14.524 9.872-27.594 9.871h-45.366l-32.078 32.078c-9.248 9.248-17.81 13.195-26.484 12.534-8.568-0.649-16.956-5.824-25.985-14.854l0.006-0.006-29.421-29.758h-43.509c-13.071 0-21.919-3.268-27.594-9.872-5.6-6.517-7.864-16.101-7.863-28.866h0.012l0.231-39.972-28.293-27.969c-0.05-0.044-0.1-0.087-0.143-0.137-9.03-9.03-14.206-17.411-14.854-25.985-0.661-8.674 3.293-17.236 12.534-26.484l30.768-30.768-0.237-41.607c-0.006-0.075-0.012-0.156-0.012-0.23 0-12.765 2.27-22.35 7.864-28.867 5.675-6.604 14.524-9.872 27.594-9.871zM87.682 179.997l-0.274-47.724-27.276 27.276c-8.138 8.138-11.636 15.44-11.094 22.587 0.549 7.246 5.226 14.642 13.413 22.823 0.037 0.037 0.081 0.081 0.113 0.125l24.837 24.551 0.281-49.644zM92.303 241.483l-0.2 35.09h0.013c0 11.58 1.921 20.117 6.66 25.63 4.664 5.432 12.297 8.113 23.815 8.113h38.576l-33.55-33.936-35.308-34.903zM325.415 49.672h-38.575l33.549 33.936 35.308 34.902 0.2-34.884c-0.006-0.069-0.006-0.137-0.007-0.205 0-11.58-1.921-20.117-6.66-25.63-4.664-5.432-12.297-8.113-23.815-8.113zM360.599 130.352l-0.281 49.645 0.274 47.724 27.276-27.276c8.138-8.138 11.636-15.44 11.094-22.587-0.549-7.252-5.226-14.642-13.413-22.824l0.006-0.006-24.956-24.669z" fill="#ffffff" fill-rule="nonzero" stroke="none" stroke-width="1" stroke-linecap="butt" stroke-linejoin="miter" stroke-miterlimit="10" stroke-dasharray="" stroke-dashoffset="0" font-family="none" font-weight="none" font-size="none" text-anchor="none" style="mix-blend-mode: normal" data-fill-palette-color="tertiary"></path></g><g transform="matrix(1,0,0,1,112,121.84560347267679)"><svg viewBox="0 0 224 116.30879305464643" height="116.30879305464643" width="224"><g><svg viewBox="0 0 224 116.30879305464643" height="116.30879305464643" width="224"><g><svg viewBox="0 0 224 116.30879305464643" height="116.30879305464643" width="224"><g><svg viewBox="0 0 224 116.30879305464643" height="116.30879305464643" width="224"><g id="textblocktransform"><svg viewBox="0 0 224 116.30879305464643" height="116.30879305464643" width="224" id="textblock"><g><svg viewBox="0 0 224 76.21967749474176" height="76.21967749474176" width="224"><g transform="matrix(1,0,0,1,0,0)"><svg width="224" viewBox="1.17 -35.55 104.46 35.55" height="76.21967749474176" data-palette-color="#ae4cde"><g class="wordmark-text-0" data-fill-palette-color="primary" id="text-0"><path d="M24.78-35.55L31.49-8.79 36.96-35.55 43.09-35.55 34.89 0 28.98 0 22.22-25.95 15.31 0 9.38 0 1.17-35.55 7.3-35.55 12.82-8.84 19.6-35.55 24.78-35.55ZM57.83 0L47.6 0 47.6-35.55 58.1-35.55Q62.81-35.55 66.46-33.45 70.11-31.35 72.12-27.49 74.12-23.63 74.12-18.65L74.12-18.65 74.12-16.87Q74.12-11.82 72.1-7.98 70.09-4.15 66.37-2.08 62.64 0 57.83 0L57.83 0ZM58.1-30.57L53.78-30.57 53.78-4.93 57.81-4.93Q62.67-4.93 65.27-7.97 67.87-11.01 67.92-16.7L67.92-16.7 67.92-18.68Q67.92-24.46 65.4-27.51 62.89-30.57 58.1-30.57L58.1-30.57ZM93.23 0L80.27 0 80.27-35.55 92.45-35.55Q98.48-35.55 101.63-33.13 104.78-30.71 104.78-25.93L104.78-25.93Q104.78-23.49 103.46-21.53 102.14-19.58 99.6-18.51L99.6-18.51Q102.49-17.72 104.06-15.56 105.63-13.4 105.63-10.38L105.63-10.38Q105.63-5.37 102.42-2.69 99.21 0 93.23 0L93.23 0ZM93.82-16.04L86.45-16.04 86.45-4.93 93.31-4.93Q96.21-4.93 97.85-6.37 99.48-7.81 99.48-10.38L99.48-10.38Q99.48-15.92 93.82-16.04L93.82-16.04ZM86.45-30.57L86.45-20.58 92.5-20.58Q95.38-20.58 97-21.89 98.63-23.19 98.63-25.59L98.63-25.59Q98.63-28.22 97.13-29.39 95.62-30.57 92.45-30.57L92.45-30.57 86.45-30.57Z" fill="#ffffff" data-fill-palette-color="primary"></path></g></svg></g></svg></g><g transform="matrix(1,0,0,1,0,94.21331407899041)"><svg viewBox="0 0 224 22.09547897565602" height="22.09547897565602" width="224"><g transform="matrix(1,0,0,1,0,0)"><svg width="224" viewBox="5.4 -37.1 474.42 46.8" height="22.09547897565602" data-palette-color="#b19dd0"><path d="M50.75-35L54.4-35 54.4-13.75Q54.4-6.8 50.98-3.25 47.55 0.3 41.3 0.3L41.3 0.3Q37.15 0.3 34.23-1.3 31.3-2.9 29.9-5.85L29.9-5.85Q28.45-2.85 25.55-1.28 22.65 0.3 18.55 0.3L18.55 0.3Q12.25 0.3 8.83-3.25 5.4-6.8 5.4-13.75L5.4-13.75 5.4-35 9.1-35 9.1-13.9Q9.1-3 18.55-3L18.55-3Q23.1-3 25.6-5.68 28.1-8.35 28.1-13.9L28.1-13.9 28.1-35 31.75-35 31.75-13.9Q31.75-8.3 34.23-5.65 36.7-3 41.3-3L41.3-3Q45.85-3 48.3-5.68 50.75-8.35 50.75-13.9L50.75-13.9 50.75-35ZM76-2.9Q78.45-2.9 80.52-3.78 82.6-4.65 84.05-6.35L84.05-6.35 86.05-4.05Q84.3-1.95 81.7-0.85 79.1 0.25 75.95 0.25L75.95 0.25Q71.9 0.25 68.75-1.48 65.6-3.2 63.85-6.25 62.1-9.3 62.1-13.15L62.1-13.15Q62.1-17 63.77-20.05 65.45-23.1 68.4-24.8 71.35-26.5 75.1-26.5L75.1-26.5Q78.6-26.5 81.42-24.9 84.25-23.3 85.92-20.45 87.6-17.6 87.7-13.95L87.7-13.95 66.1-9.75Q67.1-6.55 69.72-4.73 72.35-2.9 76-2.9L76-2.9ZM75.1-23.45Q72.35-23.45 70.17-22.18 68-20.9 66.77-18.63 65.55-16.35 65.55-13.4L65.55-13.4Q65.55-12.65 65.6-12.3L65.6-12.3 84.15-15.9Q83.55-19.2 81.1-21.33 78.65-23.45 75.1-23.45L75.1-23.45ZM108.5-26.5Q112.2-26.5 115.2-24.83 118.2-23.15 119.9-20.1 121.59-17.05 121.59-13.15L121.59-13.15Q121.59-9.25 119.9-6.2 118.2-3.15 115.2-1.45 112.2 0.25 108.5 0.25L108.5 0.25Q105.2 0.25 102.57-1.15 99.95-2.55 98.34-5.2L98.34-5.2 98.34 0 94.95 0 94.95-37.1 98.5-37.1 98.5-21.3Q100.15-23.85 102.72-25.18 105.3-26.5 108.5-26.5L108.5-26.5ZM108.25-2.9Q111-2.9 113.25-4.17 115.5-5.45 116.77-7.8 118.05-10.15 118.05-13.15L118.05-13.15Q118.05-16.15 116.77-18.5 115.5-20.85 113.25-22.13 111-23.4 108.25-23.4L108.25-23.4Q105.45-23.4 103.22-22.13 101-20.85 99.72-18.5 98.45-16.15 98.45-13.15L98.45-13.15Q98.45-10.15 99.72-7.8 101-5.45 103.22-4.17 105.45-2.9 108.25-2.9L108.25-2.9ZM142.69 0L142.69-35 156.94-35Q162.49-35 166.74-32.77 170.99-30.55 173.34-26.58 175.69-22.6 175.69-17.5L175.69-17.5Q175.69-12.4 173.34-8.43 170.99-4.45 166.74-2.23 162.49 0 156.94 0L156.94 0 142.69 0ZM146.39-3.2L156.74-3.2Q161.34-3.2 164.79-5.03 168.24-6.85 170.14-10.08 172.04-13.3 172.04-17.5L172.04-17.5Q172.04-21.7 170.14-24.93 168.24-28.15 164.79-29.98 161.34-31.8 156.74-31.8L156.74-31.8 146.39-31.8 146.39-3.2ZM194.49-2.9Q196.94-2.9 199.01-3.78 201.09-4.65 202.54-6.35L202.54-6.35 204.54-4.05Q202.79-1.95 200.19-0.85 197.59 0.25 194.44 0.25L194.44 0.25Q190.39 0.25 187.24-1.48 184.09-3.2 182.34-6.25 180.59-9.3 180.59-13.15L180.59-13.15Q180.59-17 182.26-20.05 183.94-23.1 186.89-24.8 189.84-26.5 193.59-26.5L193.59-26.5Q197.09-26.5 199.91-24.9 202.74-23.3 204.41-20.45 206.09-17.6 206.19-13.95L206.19-13.95 184.59-9.75Q185.59-6.55 188.21-4.73 190.84-2.9 194.49-2.9L194.49-2.9ZM193.59-23.45Q190.84-23.45 188.66-22.18 186.49-20.9 185.26-18.63 184.04-16.35 184.04-13.4L184.04-13.4Q184.04-12.65 184.09-12.3L184.09-12.3 202.64-15.9Q202.04-19.2 199.59-21.33 197.14-23.45 193.59-23.45L193.59-23.45ZM231.54-26.3L235.04-26.3 223.34 0 219.69 0 208.04-26.3 211.74-26.3 221.59-3.9 231.54-26.3ZM250.53-2.9Q252.98-2.9 255.06-3.78 257.13-4.65 258.58-6.35L258.58-6.35 260.58-4.05Q258.83-1.95 256.23-0.85 253.63 0.25 250.48 0.25L250.48 0.25Q246.43 0.25 243.28-1.48 240.13-3.2 238.38-6.25 236.63-9.3 236.63-13.15L236.63-13.15Q236.63-17 238.31-20.05 239.98-23.1 242.93-24.8 245.88-26.5 249.63-26.5L249.63-26.5Q253.13-26.5 255.96-24.9 258.78-23.3 260.46-20.45 262.13-17.6 262.23-13.95L262.23-13.95 240.63-9.75Q241.63-6.55 244.26-4.73 246.88-2.9 250.53-2.9L250.53-2.9ZM249.63-23.45Q246.88-23.45 244.71-22.18 242.53-20.9 241.31-18.63 240.08-16.35 240.08-13.4L240.08-13.4Q240.08-12.65 240.13-12.3L240.13-12.3 258.68-15.9Q258.08-19.2 255.63-21.33 253.18-23.45 249.63-23.45L249.63-23.45ZM276.88 0.25Q273.33 0.25 271.41-1.75 269.48-3.75 269.48-7.3L269.48-7.3 269.48-37.1 273.03-37.1 273.03-7.6Q273.03-5.25 274.13-4.03 275.23-2.8 277.43-2.8L277.43-2.8Q278.83-2.8 279.83-3.25L279.83-3.25 280.08-0.3Q278.53 0.25 276.88 0.25L276.88 0.25ZM295.18 0.25Q291.38 0.25 288.33-1.48 285.28-3.2 283.53-6.25 281.78-9.3 281.78-13.15L281.78-13.15Q281.78-17 283.53-20.05 285.28-23.1 288.33-24.8 291.38-26.5 295.18-26.5L295.18-26.5Q298.98-26.5 302.03-24.8 305.08-23.1 306.8-20.05 308.53-17 308.53-13.15L308.53-13.15Q308.53-9.3 306.8-6.25 305.08-3.2 302.03-1.48 298.98 0.25 295.18 0.25L295.18 0.25ZM295.18-2.9Q297.98-2.9 300.2-4.17 302.43-5.45 303.68-7.8 304.93-10.15 304.93-13.15L304.93-13.15Q304.93-16.15 303.68-18.5 302.43-20.85 300.2-22.13 297.98-23.4 295.18-23.4L295.18-23.4Q292.38-23.4 290.15-22.13 287.93-20.85 286.65-18.5 285.38-16.15 285.38-13.15L285.38-13.15Q285.38-10.15 286.65-7.8 287.93-5.45 290.15-4.17 292.38-2.9 295.18-2.9L295.18-2.9ZM329.33-26.5Q333.03-26.5 336.03-24.83 339.03-23.15 340.73-20.1 342.43-17.05 342.43-13.15L342.43-13.15Q342.43-9.2 340.73-6.15 339.03-3.1 336.05-1.43 333.08 0.25 329.33 0.25L329.33 0.25Q326.13 0.25 323.55-1.07 320.98-2.4 319.33-4.95L319.33-4.95 319.33 9.7 315.78 9.7 315.78-26.3 319.18-26.3 319.18-21.1Q320.78-23.7 323.4-25.1 326.03-26.5 329.33-26.5L329.33-26.5ZM329.08-2.9Q331.83-2.9 334.08-4.17 336.33-5.45 337.6-7.8 338.88-10.15 338.88-13.15L338.88-13.15Q338.88-16.15 337.6-18.48 336.33-20.8 334.08-22.1 331.83-23.4 329.08-23.4L329.08-23.4Q326.28-23.4 324.05-22.1 321.83-20.8 320.55-18.48 319.28-16.15 319.28-13.15L319.28-13.15Q319.28-10.15 320.55-7.8 321.83-5.45 324.05-4.17 326.28-2.9 329.08-2.9L329.08-2.9ZM382.47-26.5Q387.42-26.5 390.25-23.65 393.07-20.8 393.07-15.25L393.07-15.25 393.07 0 389.52 0 389.52-14.9Q389.52-19 387.55-21.15 385.57-23.3 381.97-23.3L381.97-23.3Q377.87-23.3 375.52-20.78 373.17-18.25 373.17-13.8L373.17-13.8 373.17 0 369.62 0 369.62-14.9Q369.62-19 367.65-21.15 365.67-23.3 362.02-23.3L362.02-23.3Q357.97-23.3 355.6-20.78 353.22-18.25 353.22-13.8L353.22-13.8 353.22 0 349.67 0 349.67-26.3 353.07-26.3 353.07-21.5Q354.47-23.9 356.97-25.2 359.47-26.5 362.72-26.5L362.72-26.5Q366.02-26.5 368.45-25.1 370.87-23.7 372.07-20.95L372.07-20.95Q373.52-23.55 376.25-25.03 378.97-26.5 382.47-26.5L382.47-26.5ZM414.07-2.9Q416.52-2.9 418.6-3.78 420.67-4.65 422.12-6.35L422.12-6.35 424.12-4.05Q422.37-1.95 419.77-0.85 417.17 0.25 414.02 0.25L414.02 0.25Q409.97 0.25 406.82-1.48 403.67-3.2 401.92-6.25 400.17-9.3 400.17-13.15L400.17-13.15Q400.17-17 401.85-20.05 403.52-23.1 406.47-24.8 409.42-26.5 413.17-26.5L413.17-26.5Q416.67-26.5 419.5-24.9 422.32-23.3 424-20.45 425.67-17.6 425.77-13.95L425.77-13.95 404.17-9.75Q405.17-6.55 407.8-4.73 410.42-2.9 414.07-2.9L414.07-2.9ZM413.17-23.45Q410.42-23.45 408.25-22.18 406.07-20.9 404.85-18.63 403.62-16.35 403.62-13.4L403.62-13.4Q403.62-12.65 403.67-12.3L403.67-12.3 422.22-15.9Q421.62-19.2 419.17-21.33 416.72-23.45 413.17-23.45L413.17-23.45ZM446.42-26.5Q451.37-26.5 454.29-23.63 457.22-20.75 457.22-15.25L457.22-15.25 457.22 0 453.67 0 453.67-14.9Q453.67-19 451.62-21.15 449.57-23.3 445.77-23.3L445.77-23.3Q441.52-23.3 439.04-20.78 436.57-18.25 436.57-13.8L436.57-13.8 436.57 0 433.02 0 433.02-26.3 436.42-26.3 436.42-21.45Q437.87-23.85 440.44-25.18 443.02-26.5 446.42-26.5L446.42-26.5ZM478.57-4.15L479.82-1.6Q478.82-0.7 477.37-0.23 475.92 0.25 474.32 0.25L474.32 0.25Q470.62 0.25 468.62-1.75 466.62-3.75 466.62-7.4L466.62-7.4 466.62-32.05 470.17-32.05 470.17-26.3 478.12-26.3 478.12-23.3 470.17-23.3 470.17-7.6Q470.17-5.25 471.32-4.03 472.47-2.8 474.67-2.8L474.67-2.8Q477.07-2.8 478.57-4.15L478.57-4.15Z" opacity="1" transform="matrix(1,0,0,1,0,0)" fill="#ffffff" class="slogan-text-1" data-fill-palette-color="secondary" id="text-1"></path></svg></g></svg></g></svg></g></svg></g></svg></g></svg></g></svg></g></svg></g><defs></defs></svg><rect width="448" height="360" fill="none" stroke="none" visibility="hidden"></rect></g></svg></g></svg>