<svg xmlns="http://www.w3.org/2000/svg" width="2000" height="1607"><path d="M972.808 4.42c-32.189 9.108-52.542 25.338-139.716 111.413L747.851 200l-114.759.058c-124.041.062-144.581 2.138-175.329 17.72-19.809 10.038-42.671 34.066-51.584 54.214-13.997 31.644-16.06 53.788-16.121 173.038L390 558.393l-70.22 69.97C211.726 736.032 198.333 755.694 198.333 806.667c0 24.769 1.296 31.059 10.301 50 15.522 32.648 43.558 65.214 115.825 134.538L390 1054.076l.058 110.462c.061 116.283 2.185 138.63 16.183 170.275 14.935 33.764 51.563 60.518 93.826 68.533 9.63 1.826 68.183 3.321 130.117 3.321H742.79l66.105 68.647c73.408 76.231 105.562 104.096 137.772 119.395 18.933 8.993 25.241 10.291 50 10.291 51.288 0 70.285-13.05 181.638-124.78l73.305-73.553h115.407c63.473 0 123.286-1.495 132.916-3.321 42.263-8.015 78.891-34.769 93.826-68.533 14.064-31.794 16.122-53.815 16.183-173.176l.058-113.363 70.22-69.97C1788.274 870.635 1801.667 850.973 1801.667 800c0-24.074-1.407-31.34-9.355-48.333-15.335-32.787-42.16-64.15-114.116-133.425L1610 552.586l-.058-110.46c-.061-116.171-2.19-138.64-16.121-170.134-8.913-20.148-31.775-44.176-51.584-54.214-30.629-15.521-51.463-17.658-172.799-17.72L1257.21 200l-66.105-68.647C1117.685 55.11 1087.26 28.73 1054.974 13.321c-25.736-12.283-57.902-15.767-82.166-8.901m80.708 32.416c17.122 8.969 37.049 26.662 98.151 87.148l76.666 75.895-50.716.06c-45.43.055-51.051.688-53.934 6.074-7.461 13.94-.956 15.596 65.356 16.634l62.628.981 167.5 167.34 167.5 167.341v480.124l-41.887 41.617c-44.983 44.694-49.174 49.973-46.078 58.042 4.605 12 16.657 5.001 51.358-29.827l34.94-35.068 1.667 79.235c2.654 126.195-1.67 159.29-25.015 191.434-15.862 21.841-43.575 34.943-83.319 39.389-16.5 1.846-69.72 3.369-118.267 3.384l-88.268.028 30.768-30.896c30.531-30.659 37.035-42.652 25.526-47.069-7.971-3.059-13.434 1.172-53.035 41.075l-36.61 36.89h-122.223l1.055 9.166 1.054 9.167 49.337 1.667 49.337 1.666-77.67 77.006c-66.701 66.131-80.843 78.551-100.136 87.941-20.653 10.053-24.432 10.808-46.849 9.37-41.686-2.676-55.242-12.085-144.019-99.967l-76.666-75.895 49.049-.061c43.311-.053 49.4-.743 52.05-5.894 6.778-13.18 2.57-14.166-60.544-14.183l-60.555-.017-169.167-169.23-169.167-169.23V568.648l41.96-42.406c42.977-43.435 48.592-53.304 31.695-55.703-6.288-.893-14.767 5.67-40.677 31.482l-32.732 32.61-.956-78.149c-1.995-163.025 6.469-194.174 59.914-220.498l22.3-10.984 115.081-.991L725 223.017l-31.163 31.385c-32.56 32.793-37.205 42.972-20.475 44.877 6.708.763 15.666-6.449 46.584-37.5l38.279-38.446h53.584c41.447 0 55.049-1.088 60.054-4.804 5.175-3.843 5.732-6.012 2.784-10.834-3.164-5.173-9.917-6.265-47.611-7.695l-43.924-1.667 75.944-75.301c94.36-93.561 105.395-100.842 149.46-98.631 18.811.945 27.814 3.432 45 12.435m474.87 199.831c52.617 27.052 61.662 60.294 58.281 214.186L1585 526.707l-151.667-151.831-151.666-151.83 112.014.977 112.013.977 22.692 11.667M503.333 549.74c0 3.359 72.354 318.199 75.354 327.891 1.609 5.2 5.326 5.84 29.029 5l27.184-.964 30.708-115c16.89-63.25 31.61-118.552 32.712-122.894 1.103-4.341 2.742-7.156 3.643-6.254 1.328 1.327 64.704 241.04 64.704 244.734 0 .594 12.456 1.08 27.68 1.08h27.681l38.55-167.5 38.55-167.5-26.645-.974c-14.654-.537-27.379-.241-28.276.657-.898.897-13.181 58.272-27.296 127.498-14.115 69.227-26.476 124.431-27.468 122.676-.992-1.754-15.706-59.065-32.697-127.357l-30.893-124.166h-48.929l-3.23 12.5c-1.776 6.875-15.391 60.5-30.255 119.166-32.706 129.083-30.262 120.667-33.305 114.71-1.323-2.59-13.52-59.082-27.103-125.537l-24.698-120.827-27.5-.006c-15.125-.004-27.5 1.377-27.5 3.067m443.334 165.412v168.96l65.833-1.696c79.854-2.056 96.24-6.227 130.127-33.119 19.475-15.454 35.58-39.043 44.729-65.515 6.686-19.344 7.624-28.381 7.486-72.115-.14-44.363-1.041-52.255-7.991-70-15.396-39.311-39.382-65.315-76.44-82.873l-22.078-10.461-70.833-1.07-70.833-1.071v168.96m313.333-.066v168.941l79.167-1.481c94.881-1.776 106.268-4.417 132.613-30.765 19.546-19.548 25.475-35.499 25.475-68.539 0-15.884-1.958-26.192-6.765-35.614-7.877-15.441-27.017-33.296-38.884-36.275-4.55-1.141-8.218-3.038-8.151-4.214.067-1.177 6.705-6.309 14.751-11.405 40.202-25.462 42.912-89.462 5.224-123.347-24.418-21.954-31.063-23.302-122.597-24.863L1260 546.146v168.94M1766.782 750c10.574 19.834 11.551 24.063 11.551 50 0 42.521-5.28 50.386-93.999 140l-74.25 75 .021-216.667.021-216.666L1682.678 655c56.9 57.512 75.045 78.008 84.104 95m-690.311-154.749c23.314 6.923 45.98 29.406 55.196 54.749 5.432 14.938 6.666 26.667 6.666 63.333 0 51.502-5.129 71.162-24.455 93.741-18.524 21.641-33.344 27.386-74.711 28.964l-35.834 1.366V590h27.729c15.53 0 35.506 2.31 45.409 5.251m336.292 2.569c28.863 15.494 26.93 67.032-3.089 82.346-10.545 5.38-19.662 6.501-52.875 6.501h-40.132v-97.336l42.5 1.266c32.643.972 45.073 2.647 53.596 7.223M389.937 809.167 389.874 1025l-72.552-73.333c-88.155-89.104-95.655-100.474-95.655-145 0-42.396 5.381-50.444 93.052-139.167 40.308-40.792 73.736-74.167 74.284-74.167.549 0 .969 97.125.934 215.834m1025.675-72.689c17.938 8.144 25.459 22.258 25.482 47.816.018 20.819-5.161 30.97-22.364 43.833-8.055 6.023-14.937 7.007-55.628 7.958l-46.435 1.086V730l42.5.073c34.523.06 45.117 1.262 56.445 6.405m-698.945 648.028c0 4.238-202.012.239-220.47-4.365-22.24-5.548-49.49-23.021-60.004-38.474-20.798-30.572-25.095-64.581-23.568-186.528l.959-76.528 151.541 151.514c83.348 83.333 151.542 152.804 151.542 154.381" fill="#a437db" fill-rule="evenodd"/></svg>